<mxfile host="app.diagrams.net" agent="Mozilla/5.0 (Windows NT 10.0; Win64; x64) AppleWebKit/537.36 (KHTML, like Gecko) Chrome/141.0.0.0 Safari/537.36" version="28.2.8">
  <diagram name="第 1 页" id="iFhHI0QY4kXGy2KMf9kF">
    <mxGraphModel dx="1554" dy="858" grid="1" gridSize="10" guides="1" tooltips="1" connect="1" arrows="1" fold="1" page="1" pageScale="1" pageWidth="827" pageHeight="1169" math="0" shadow="0">
      <root>
        <mxCell id="0" />
        <mxCell id="1" parent="0" />
        <mxCell id="NAv4dgfuiUwC2lmp40XU-4" value="夫妻" style="edgeStyle=orthogonalEdgeStyle;rounded=0;orthogonalLoop=1;jettySize=auto;html=1;exitX=1;exitY=0.5;exitDx=0;exitDy=0;endArrow=none;endFill=0;" parent="1" source="NAv4dgfuiUwC2lmp40XU-1" target="NAv4dgfuiUwC2lmp40XU-2" edge="1">
          <mxGeometry relative="1" as="geometry" />
        </mxCell>
        <mxCell id="NAv4dgfuiUwC2lmp40XU-7" style="edgeStyle=orthogonalEdgeStyle;shape=connector;rounded=0;orthogonalLoop=1;jettySize=auto;html=1;exitX=0.5;exitY=1;exitDx=0;exitDy=0;entryX=0.5;entryY=0;entryDx=0;entryDy=0;strokeColor=default;align=center;verticalAlign=middle;fontFamily=Helvetica;fontSize=11;fontColor=default;labelBackgroundColor=default;endArrow=none;endFill=0;" parent="1" source="NAv4dgfuiUwC2lmp40XU-1" target="NAv4dgfuiUwC2lmp40XU-5" edge="1">
          <mxGeometry relative="1" as="geometry" />
        </mxCell>
        <mxCell id="NAv4dgfuiUwC2lmp40XU-8" style="edgeStyle=orthogonalEdgeStyle;shape=connector;rounded=0;orthogonalLoop=1;jettySize=auto;html=1;exitX=0.5;exitY=1;exitDx=0;exitDy=0;entryX=0.5;entryY=0;entryDx=0;entryDy=0;strokeColor=default;align=center;verticalAlign=middle;fontFamily=Helvetica;fontSize=11;fontColor=default;labelBackgroundColor=default;endArrow=none;endFill=0;" parent="1" source="NAv4dgfuiUwC2lmp40XU-1" target="NAv4dgfuiUwC2lmp40XU-6" edge="1">
          <mxGeometry relative="1" as="geometry" />
        </mxCell>
        <mxCell id="NAv4dgfuiUwC2lmp40XU-1" value="张哲祥" style="rounded=0;whiteSpace=wrap;html=1;" parent="1" vertex="1">
          <mxGeometry x="240" y="240.0000000000001" width="80" height="40" as="geometry" />
        </mxCell>
        <UserObject label="江琼" link="https://viewer.diagrams.net/?tags=%7B%7D&amp;lightbox=1&amp;highlight=0000ff&amp;edit=_blank&amp;layers=1&amp;nav=1&amp;title=%E6%B1%9F%E6%B0%8F%E5%AE%B6%E6%97%8F%E5%9B%BE.drawio&amp;dark=auto#Uhttps%3A%2F%2Fraw.githubusercontent.com%2Ftoppemonkey%2Fprocessing_folder%2Fmain%2F%E5%AE%B6%E6%97%8F%E7%BB%93%E6%9E%84%E5%9B%BE%2F%E6%B1%9F%E6%B0%8F%E5%AE%B6%E6%97%8F%E5%9B%BE.drawio" id="NAv4dgfuiUwC2lmp40XU-2">
          <mxCell style="rounded=1;whiteSpace=wrap;html=1;" parent="1" vertex="1">
            <mxGeometry x="350" y="240.0000000000001" width="80" height="40" as="geometry" />
          </mxCell>
        </UserObject>
        <mxCell id="NAv4dgfuiUwC2lmp40XU-5" value="张平" style="rounded=0;whiteSpace=wrap;html=1;" parent="1" vertex="1">
          <mxGeometry x="160" y="360.0000000000001" width="80" height="40" as="geometry" />
        </mxCell>
        <mxCell id="NAv4dgfuiUwC2lmp40XU-6" value="" style="rounded=1;whiteSpace=wrap;html=1;" parent="1" vertex="1">
          <mxGeometry x="320" y="360.0000000000001" width="80" height="40" as="geometry" />
        </mxCell>
      </root>
    </mxGraphModel>
  </diagram>
</mxfile>
